<svg width="26" height="24" viewBox="0 0 26 24" fill="none" xmlns="http://www.w3.org/2000/svg">
<path d="M21.2727 24C19.9727 24 18.8598 23.53 17.9341 22.59C17.0083 21.65 16.5455 20.52 16.5455 19.2V13.8C16.5455 12.96 16.8311 12.25 17.4023 11.67C17.9735 11.09 18.6727 10.8 19.5 10.8C20.3273 10.8 21.0265 11.09 21.5977 11.67C22.1689 12.25 22.4545 12.96 22.4545 13.8V18C22.4545 18.34 22.3411 18.6248 22.1142 18.8544C21.8881 19.0848 21.6076 19.2 21.2727 19.2C20.9379 19.2 20.6574 19.0848 20.4313 18.8544C20.2044 18.6248 20.0909 18.34 20.0909 18V13.8C20.0909 13.64 20.0318 13.5 19.9136 13.38C19.7955 13.26 19.6576 13.2 19.5 13.2C19.3424 13.2 19.2045 13.26 19.0864 13.38C18.9682 13.5 18.9091 13.64 18.9091 13.8V19.2C18.9091 19.86 19.1403 20.4252 19.6028 20.8956C20.0661 21.3652 20.6227 21.6 21.2727 21.6C21.9227 21.6 22.4794 21.3652 22.9426 20.8956C23.4051 20.4252 23.6364 19.86 23.6364 19.2V15.6C23.6364 15.26 23.7498 14.9748 23.9767 14.7444C24.2028 14.5148 24.4833 14.4 24.8182 14.4C25.153 14.4 25.4335 14.5148 25.6596 14.7444C25.8865 14.9748 26 15.26 26 15.6V19.2C26 20.52 25.5371 21.65 24.6114 22.59C23.6856 23.53 22.5727 24 21.2727 24ZM2.36364 19.2C1.71364 19.2 1.15739 18.9652 0.694909 18.4956C0.231636 18.0252 0 17.46 0 16.8V2.4C0 1.74 0.231636 1.1748 0.694909 0.7044C1.15739 0.2348 1.71364 0 2.36364 0H21.2727C21.9227 0 22.4794 0.2348 22.9426 0.7044C23.4051 1.1748 23.6364 1.74 23.6364 2.4V9.6H19.5C18.3576 9.6 17.3826 10.01 16.575 10.83C15.7674 11.65 15.3636 12.64 15.3636 13.8V19.2H2.36364ZM11.8182 10.59C11.9167 10.59 12.0199 10.5748 12.1278 10.5444C12.2365 10.5148 12.3402 10.47 12.4386 10.41L20.8 5.1C20.9379 5.02 21.0513 4.9048 21.1404 4.7544C21.2286 4.6048 21.2727 4.43 21.2727 4.23C21.2727 3.87 21.1152 3.58 20.8 3.36C20.4848 3.14 20.1303 3.14 19.7364 3.36L11.8182 8.4L3.9 3.36C3.52576 3.12 3.17633 3.11 2.85173 3.33C2.52633 3.55 2.36364 3.85 2.36364 4.23C2.36364 4.43 2.40776 4.6048 2.496 4.7544C2.58503 4.9048 2.69848 5.02 2.83636 5.1L11.1977 10.41C11.2962 10.47 11.3998 10.5148 11.5085 10.5444C11.6165 10.5748 11.7197 10.59 11.8182 10.59Z" fill="white"/>
</svg>
