<svg width="26" height="21" viewBox="0 0 26 21" fill="none" xmlns="http://www.w3.org/2000/svg">
<path d="M14.6841 10.3833C14.9008 10.5389 15.1273 10.6167 15.3636 10.6167C15.6 10.6167 15.8265 10.5389 16.0432 10.3833L23.6364 5.1625V2.33333L15.3636 7.99167L7.09091 2.33333V5.1625L14.6841 10.3833ZM2.36364 21C1.71364 21 1.1572 20.7715 0.694318 20.3146C0.231439 19.8576 0 19.3083 0 18.6667V5.25C0 4.91944 0.113258 4.64236 0.339773 4.41875C0.566288 4.19514 0.84697 4.08333 1.18182 4.08333C1.51667 4.08333 1.79735 4.19514 2.02386 4.41875C2.25038 4.64236 2.36364 4.91944 2.36364 5.25V18.6667H20.6818C21.0167 18.6667 21.2973 18.7785 21.5239 19.0021C21.7504 19.2257 21.8636 19.5028 21.8636 19.8333C21.8636 20.1639 21.7504 20.441 21.5239 20.6646C21.2973 20.8882 21.0167 21 20.6818 21H2.36364ZM7.09091 16.3333C6.44091 16.3333 5.88447 16.1049 5.42159 15.6479C4.95871 15.191 4.72727 14.6417 4.72727 14V2.33333C4.72727 1.69167 4.95871 1.14236 5.42159 0.685417C5.88447 0.228472 6.44091 0 7.09091 0H23.6364C24.2864 0 24.8428 0.228472 25.3057 0.685417C25.7686 1.14236 26 1.69167 26 2.33333V14C26 14.6417 25.7686 15.191 25.3057 15.6479C24.8428 16.1049 24.2864 16.3333 23.6364 16.3333H7.09091Z" fill="white"/>
</svg>
