<svg width="26" height="21" viewBox="0 0 26 21" fill="none" xmlns="http://www.w3.org/2000/svg">
<path d="M19.5 14.4375C18.59 14.4375 17.8208 14.1203 17.1925 13.4859C16.5642 12.8516 16.25 12.075 16.25 11.1562C16.25 10.2375 16.5642 9.46094 17.1925 8.82656C17.8208 8.19219 18.59 7.875 19.5 7.875C20.41 7.875 21.1792 8.19219 21.8075 8.82656C22.4358 9.46094 22.75 10.2375 22.75 11.1562C22.75 12.075 22.4358 12.8516 21.8075 13.4859C21.1792 14.1203 20.41 14.4375 19.5 14.4375ZM14.3 21C13.9317 21 13.6231 20.874 13.3744 20.622C13.1248 20.3709 13 20.0594 13 19.6875V19.1625C13 18.6375 13.1352 18.151 13.4056 17.703C13.6769 17.2541 14.0617 16.9312 14.56 16.7344C15.34 16.4062 16.1473 16.1604 16.9819 15.9967C17.8156 15.8322 18.655 15.75 19.5 15.75C20.345 15.75 21.1848 15.8322 22.0194 15.9967C22.8531 16.1604 23.66 16.4062 24.44 16.7344C24.9383 16.9312 25.3231 17.2541 25.5944 17.703C25.8648 18.151 26 18.6375 26 19.1625V19.6875C26 20.0594 25.8752 20.3709 25.6256 20.622C25.3769 20.874 25.0683 21 24.7 21H14.3ZM10.4 10.5C8.97 10.5 7.74583 9.98594 6.7275 8.95781C5.70917 7.92969 5.2 6.69375 5.2 5.25C5.2 3.80625 5.70917 2.57031 6.7275 1.54219C7.74583 0.514063 8.97 0 10.4 0C11.83 0 13.0542 0.514063 14.0725 1.54219C15.0908 2.57031 15.6 3.80625 15.6 5.25C15.6 6.69375 15.0908 7.92969 14.0725 8.95781C13.0542 9.98594 11.83 10.5 10.4 10.5ZM1.3 21C0.931667 21 0.623133 20.874 0.3744 20.622C0.1248 20.3709 0 20.0594 0 19.6875V17.0625C0 16.4937 0.195 15.9307 0.585 15.3733C0.975 14.8151 1.54917 14.3281 2.3075 13.9125C3.4775 13.2781 4.75583 12.7697 6.1425 12.3874C7.52917 12.0041 8.94833 11.8125 10.4 11.8125C10.985 11.8125 11.6081 11.8563 12.2694 11.9438C12.9298 12.0313 13.6067 12.1625 14.3 12.3375V14.0437C13.9967 14.1531 13.7367 14.2625 13.52 14.3719C13.3033 14.4812 13.0758 14.6016 12.8375 14.7328C12.0358 15.1922 11.4292 15.7938 11.0175 16.5375C10.6058 17.2812 10.4 17.8937 10.4 18.375V21H1.3Z" fill="white"/>
</svg>
